<mxfile host="app.diagrams.net" modified="2020-04-08T12:27:43.290Z" agent="5.0 (Macintosh; Intel Mac OS X 10_15_4) AppleWebKit/537.36 (KHTML, like Gecko) Chrome/80.0.3987.163 Safari/537.36" etag="MVQ-E_r6LT1KLth0hUr6" version="12.9.6" type="github">
  <diagram id="C5RBs43oDa-KdzZeNtuy" name="Page-1">
    <mxGraphModel dx="1773" dy="1690" grid="1" gridSize="10" guides="1" tooltips="1" connect="1" arrows="1" fold="1" page="1" pageScale="1" pageWidth="827" pageHeight="1169" math="0" shadow="0">
      <root>
        <mxCell id="WIyWlLk6GJQsqaUBKTNV-0" />
        <mxCell id="WIyWlLk6GJQsqaUBKTNV-1" parent="WIyWlLk6GJQsqaUBKTNV-0" />
        <mxCell id="WIyWlLk6GJQsqaUBKTNV-2" value="" style="rounded=0;html=1;jettySize=auto;orthogonalLoop=1;fontSize=11;endArrow=none;endFill=0;endSize=8;strokeWidth=1;shadow=0;labelBackgroundColor=none;edgeStyle=orthogonalEdgeStyle;" parent="WIyWlLk6GJQsqaUBKTNV-1" source="WIyWlLk6GJQsqaUBKTNV-3" target="WIyWlLk6GJQsqaUBKTNV-6" edge="1">
          <mxGeometry relative="1" as="geometry" />
        </mxCell>
        <mxCell id="Fh5ID8DqyuNmly4tTI_g-8" value="" style="edgeStyle=orthogonalEdgeStyle;rounded=0;orthogonalLoop=1;jettySize=auto;html=1;entryX=0;entryY=0.5;entryDx=0;entryDy=0;" parent="WIyWlLk6GJQsqaUBKTNV-1" source="WIyWlLk6GJQsqaUBKTNV-3" target="Fh5ID8DqyuNmly4tTI_g-9" edge="1">
          <mxGeometry relative="1" as="geometry">
            <mxPoint x="320" y="110" as="targetPoint" />
          </mxGeometry>
        </mxCell>
        <mxCell id="WIyWlLk6GJQsqaUBKTNV-3" value="Choix d&#39;une pizza" style="rounded=1;whiteSpace=wrap;html=1;fontSize=12;glass=0;strokeWidth=1;shadow=0;" parent="WIyWlLk6GJQsqaUBKTNV-1" vertex="1">
          <mxGeometry x="155" y="135" width="130" height="50" as="geometry" />
        </mxCell>
        <mxCell id="WIyWlLk6GJQsqaUBKTNV-4" value="" style="rounded=0;html=1;jettySize=auto;orthogonalLoop=1;fontSize=11;endArrow=classic;endFill=1;endSize=8;strokeWidth=1;shadow=0;labelBackgroundColor=none;edgeStyle=orthogonalEdgeStyle;" parent="WIyWlLk6GJQsqaUBKTNV-1" source="WIyWlLk6GJQsqaUBKTNV-6" target="WIyWlLk6GJQsqaUBKTNV-10" edge="1">
          <mxGeometry y="20" relative="1" as="geometry">
            <mxPoint as="offset" />
          </mxGeometry>
        </mxCell>
        <mxCell id="G-hIVbg5v9CWW5Yy8Wli-1" value="Oui&lt;br&gt;" style="text;html=1;align=center;verticalAlign=middle;resizable=0;points=[];labelBackgroundColor=#ffffff;" parent="WIyWlLk6GJQsqaUBKTNV-4" vertex="1" connectable="0">
          <mxGeometry x="-0.15" y="4" relative="1" as="geometry">
            <mxPoint as="offset" />
          </mxGeometry>
        </mxCell>
        <mxCell id="WIyWlLk6GJQsqaUBKTNV-5" value="Non" style="edgeStyle=orthogonalEdgeStyle;rounded=0;html=1;jettySize=auto;orthogonalLoop=1;fontSize=11;endArrow=classic;endFill=1;endSize=8;strokeWidth=1;shadow=0;labelBackgroundColor=none;" parent="WIyWlLk6GJQsqaUBKTNV-1" source="WIyWlLk6GJQsqaUBKTNV-6" target="WIyWlLk6GJQsqaUBKTNV-7" edge="1">
          <mxGeometry y="10" relative="1" as="geometry">
            <mxPoint as="offset" />
          </mxGeometry>
        </mxCell>
        <mxCell id="WIyWlLk6GJQsqaUBKTNV-6" value="&lt;br&gt;Commande finie ?" style="rhombus;whiteSpace=wrap;html=1;shadow=0;fontFamily=Helvetica;fontSize=12;align=center;strokeWidth=1;spacing=6;spacingTop=-4;" parent="WIyWlLk6GJQsqaUBKTNV-1" vertex="1">
          <mxGeometry x="170" y="310" width="100" height="80" as="geometry" />
        </mxCell>
        <mxCell id="Fh5ID8DqyuNmly4tTI_g-40" style="edgeStyle=orthogonalEdgeStyle;rounded=0;orthogonalLoop=1;jettySize=auto;html=1;exitX=0.5;exitY=0;exitDx=0;exitDy=0;entryX=0;entryY=0.5;entryDx=0;entryDy=0;" parent="WIyWlLk6GJQsqaUBKTNV-1" source="WIyWlLk6GJQsqaUBKTNV-7" target="WIyWlLk6GJQsqaUBKTNV-3" edge="1">
          <mxGeometry relative="1" as="geometry" />
        </mxCell>
        <mxCell id="WIyWlLk6GJQsqaUBKTNV-7" value="Choix d&#39;une autre pizza" style="rounded=1;whiteSpace=wrap;html=1;fontSize=12;glass=0;strokeWidth=1;shadow=0;" parent="WIyWlLk6GJQsqaUBKTNV-1" vertex="1">
          <mxGeometry x="20" y="330" width="120" height="40" as="geometry" />
        </mxCell>
        <mxCell id="WIyWlLk6GJQsqaUBKTNV-9" value="" style="edgeStyle=orthogonalEdgeStyle;rounded=0;html=1;jettySize=auto;orthogonalLoop=1;fontSize=11;endArrow=classic;endFill=1;endSize=8;strokeWidth=1;shadow=0;labelBackgroundColor=none;" parent="WIyWlLk6GJQsqaUBKTNV-1" source="WIyWlLk6GJQsqaUBKTNV-10" edge="1">
          <mxGeometry y="10" relative="1" as="geometry">
            <mxPoint as="offset" />
            <mxPoint x="300" y="470" as="targetPoint" />
          </mxGeometry>
        </mxCell>
        <mxCell id="Fh5ID8DqyuNmly4tTI_g-42" value="" style="edgeStyle=orthogonalEdgeStyle;rounded=0;orthogonalLoop=1;jettySize=auto;html=1;entryX=1;entryY=0.5;entryDx=0;entryDy=0;" parent="WIyWlLk6GJQsqaUBKTNV-1" source="WIyWlLk6GJQsqaUBKTNV-10" edge="1">
          <mxGeometry relative="1" as="geometry">
            <mxPoint x="140" y="470" as="targetPoint" />
          </mxGeometry>
        </mxCell>
        <mxCell id="G-hIVbg5v9CWW5Yy8Wli-6" value="" style="edgeStyle=orthogonalEdgeStyle;rounded=0;orthogonalLoop=1;jettySize=auto;html=1;" parent="WIyWlLk6GJQsqaUBKTNV-1" source="WIyWlLk6GJQsqaUBKTNV-10" target="G-hIVbg5v9CWW5Yy8Wli-2" edge="1">
          <mxGeometry relative="1" as="geometry" />
        </mxCell>
        <mxCell id="WIyWlLk6GJQsqaUBKTNV-10" value="Règlement" style="rhombus;whiteSpace=wrap;html=1;shadow=0;fontFamily=Helvetica;fontSize=12;align=center;strokeWidth=1;spacing=6;spacingTop=-4;" parent="WIyWlLk6GJQsqaUBKTNV-1" vertex="1">
          <mxGeometry x="170" y="430" width="100" height="80" as="geometry" />
        </mxCell>
        <mxCell id="Fh5ID8DqyuNmly4tTI_g-0" value="Connexion" style="rounded=1;whiteSpace=wrap;html=1;fontSize=12;glass=0;strokeWidth=1;shadow=0;" parent="WIyWlLk6GJQsqaUBKTNV-1" vertex="1">
          <mxGeometry x="150" y="-30" width="140" height="50" as="geometry" />
        </mxCell>
        <mxCell id="Fh5ID8DqyuNmly4tTI_g-6" value="" style="rounded=0;html=1;jettySize=auto;orthogonalLoop=1;fontSize=11;endArrow=block;endFill=0;endSize=8;strokeWidth=1;shadow=0;labelBackgroundColor=none;edgeStyle=orthogonalEdgeStyle;exitX=0.5;exitY=1;exitDx=0;exitDy=0;" parent="WIyWlLk6GJQsqaUBKTNV-1" source="Fh5ID8DqyuNmly4tTI_g-0" target="WIyWlLk6GJQsqaUBKTNV-3" edge="1">
          <mxGeometry y="20" relative="1" as="geometry">
            <mxPoint as="offset" />
            <mxPoint x="260" y="60" as="sourcePoint" />
            <mxPoint x="260" y="100" as="targetPoint" />
          </mxGeometry>
        </mxCell>
        <mxCell id="Fh5ID8DqyuNmly4tTI_g-58" style="edgeStyle=orthogonalEdgeStyle;rounded=0;orthogonalLoop=1;jettySize=auto;html=1;exitX=0.5;exitY=1;exitDx=0;exitDy=0;entryX=-0.008;entryY=0.633;entryDx=0;entryDy=0;entryPerimeter=0;startArrow=none;startFill=0;endArrow=classic;endFill=1;" parent="WIyWlLk6GJQsqaUBKTNV-1" source="Fh5ID8DqyuNmly4tTI_g-9" target="Fh5ID8DqyuNmly4tTI_g-52" edge="1">
          <mxGeometry relative="1" as="geometry" />
        </mxCell>
        <mxCell id="Fh5ID8DqyuNmly4tTI_g-59" style="edgeStyle=orthogonalEdgeStyle;rounded=0;orthogonalLoop=1;jettySize=auto;html=1;exitX=0.5;exitY=0;exitDx=0;exitDy=0;entryX=0.008;entryY=0.4;entryDx=0;entryDy=0;entryPerimeter=0;startArrow=none;startFill=0;endArrow=classic;endFill=1;" parent="WIyWlLk6GJQsqaUBKTNV-1" source="Fh5ID8DqyuNmly4tTI_g-9" target="Fh5ID8DqyuNmly4tTI_g-49" edge="1">
          <mxGeometry relative="1" as="geometry" />
        </mxCell>
        <mxCell id="Fh5ID8DqyuNmly4tTI_g-9" value="&lt;font style=&quot;font-size: 11px&quot;&gt;Ajout ou retrait d&#39;ingrédient ?&lt;/font&gt;" style="rhombus;whiteSpace=wrap;html=1;shadow=0;fontFamily=Helvetica;fontSize=12;align=center;strokeWidth=1;spacing=6;spacingTop=-4;" parent="WIyWlLk6GJQsqaUBKTNV-1" vertex="1">
          <mxGeometry x="340" y="115" width="110" height="90" as="geometry" />
        </mxCell>
        <mxCell id="Fh5ID8DqyuNmly4tTI_g-27" style="edgeStyle=orthogonalEdgeStyle;rounded=0;orthogonalLoop=1;jettySize=auto;html=1;exitX=1;exitY=0.5;exitDx=0;exitDy=0;" parent="WIyWlLk6GJQsqaUBKTNV-1" source="Fh5ID8DqyuNmly4tTI_g-49" target="Fh5ID8DqyuNmly4tTI_g-26" edge="1">
          <mxGeometry relative="1" as="geometry">
            <mxPoint x="416" y="40" as="sourcePoint" />
          </mxGeometry>
        </mxCell>
        <mxCell id="Fh5ID8DqyuNmly4tTI_g-35" style="edgeStyle=orthogonalEdgeStyle;rounded=0;orthogonalLoop=1;jettySize=auto;html=1;exitX=0.5;exitY=1;exitDx=0;exitDy=0;entryX=0.5;entryY=0;entryDx=0;entryDy=0;endArrow=classic;endFill=1;" parent="WIyWlLk6GJQsqaUBKTNV-1" source="Fh5ID8DqyuNmly4tTI_g-26" target="WIyWlLk6GJQsqaUBKTNV-6" edge="1">
          <mxGeometry relative="1" as="geometry">
            <Array as="points">
              <mxPoint x="655" y="270" />
              <mxPoint x="220" y="270" />
            </Array>
          </mxGeometry>
        </mxCell>
        <mxCell id="Fh5ID8DqyuNmly4tTI_g-26" value="Retrait/Ajout demandé" style="rounded=1;whiteSpace=wrap;html=1;fontSize=12;glass=0;strokeWidth=1;shadow=0;" parent="WIyWlLk6GJQsqaUBKTNV-1" vertex="1">
          <mxGeometry x="590" y="50" width="130" height="40" as="geometry" />
        </mxCell>
        <mxCell id="Fh5ID8DqyuNmly4tTI_g-49" value="Oui" style="rounded=1;whiteSpace=wrap;html=1;" parent="WIyWlLk6GJQsqaUBKTNV-1" vertex="1">
          <mxGeometry x="450" y="50" width="100" height="40" as="geometry" />
        </mxCell>
        <mxCell id="G-hIVbg5v9CWW5Yy8Wli-16" style="edgeStyle=orthogonalEdgeStyle;rounded=0;orthogonalLoop=1;jettySize=auto;html=1;exitX=0.5;exitY=1;exitDx=0;exitDy=0;endArrow=classic;endFill=1;" parent="WIyWlLk6GJQsqaUBKTNV-1" source="Fh5ID8DqyuNmly4tTI_g-52" edge="1">
          <mxGeometry relative="1" as="geometry">
            <mxPoint x="500" y="270" as="targetPoint" />
          </mxGeometry>
        </mxCell>
        <mxCell id="Fh5ID8DqyuNmly4tTI_g-52" value="Non" style="rounded=1;whiteSpace=wrap;html=1;" parent="WIyWlLk6GJQsqaUBKTNV-1" vertex="1">
          <mxGeometry x="450" y="200" width="100" height="40" as="geometry" />
        </mxCell>
        <mxCell id="G-hIVbg5v9CWW5Yy8Wli-13" value="" style="edgeStyle=orthogonalEdgeStyle;rounded=0;orthogonalLoop=1;jettySize=auto;html=1;" parent="WIyWlLk6GJQsqaUBKTNV-1" source="G-hIVbg5v9CWW5Yy8Wli-2" target="G-hIVbg5v9CWW5Yy8Wli-12" edge="1">
          <mxGeometry relative="1" as="geometry" />
        </mxCell>
        <mxCell id="G-hIVbg5v9CWW5Yy8Wli-2" value="Commandée validée" style="rounded=1;whiteSpace=wrap;html=1;direction=north;fillColor=#f5f5f5;strokeColor=#666666;fontColor=#333333;" parent="WIyWlLk6GJQsqaUBKTNV-1" vertex="1">
          <mxGeometry x="160" y="550" width="120" height="50" as="geometry" />
        </mxCell>
        <mxCell id="P_ejqXxA3MmKmbAG34VU-8" value="" style="edgeStyle=orthogonalEdgeStyle;rounded=0;orthogonalLoop=1;jettySize=auto;html=1;strokeWidth=1;" parent="WIyWlLk6GJQsqaUBKTNV-1" source="G-hIVbg5v9CWW5Yy8Wli-12" target="P_ejqXxA3MmKmbAG34VU-7" edge="1">
          <mxGeometry relative="1" as="geometry" />
        </mxCell>
        <mxCell id="G-hIVbg5v9CWW5Yy8Wli-12" value="Fabrication de la/des pizza(s)" style="rounded=1;whiteSpace=wrap;html=1;direction=north;fillColor=#cce5ff;strokeColor=#36393d;" parent="WIyWlLk6GJQsqaUBKTNV-1" vertex="1">
          <mxGeometry x="160" y="640" width="120" height="50" as="geometry" />
        </mxCell>
        <mxCell id="P_ejqXxA3MmKmbAG34VU-10" value="" style="edgeStyle=orthogonalEdgeStyle;rounded=0;orthogonalLoop=1;jettySize=auto;html=1;strokeWidth=1;" parent="WIyWlLk6GJQsqaUBKTNV-1" source="P_ejqXxA3MmKmbAG34VU-7" target="P_ejqXxA3MmKmbAG34VU-9" edge="1">
          <mxGeometry relative="1" as="geometry" />
        </mxCell>
        <mxCell id="P_ejqXxA3MmKmbAG34VU-7" value="Cuisson de la/ des pizza(s)" style="rounded=1;whiteSpace=wrap;html=1;direction=north;fillColor=#cce5ff;strokeColor=#36393d;" parent="WIyWlLk6GJQsqaUBKTNV-1" vertex="1">
          <mxGeometry x="160" y="760" width="120" height="50" as="geometry" />
        </mxCell>
        <mxCell id="P_ejqXxA3MmKmbAG34VU-17" value="" style="edgeStyle=orthogonalEdgeStyle;rounded=0;orthogonalLoop=1;jettySize=auto;html=1;strokeWidth=1;fontColor=#9AC7BF;" parent="WIyWlLk6GJQsqaUBKTNV-1" source="P_ejqXxA3MmKmbAG34VU-9" target="P_ejqXxA3MmKmbAG34VU-16" edge="1">
          <mxGeometry relative="1" as="geometry" />
        </mxCell>
        <mxCell id="P_ejqXxA3MmKmbAG34VU-9" value="Pizza(s) prête(s)" style="rounded=1;whiteSpace=wrap;html=1;direction=north;fillColor=#ffcccc;strokeColor=#36393d;" parent="WIyWlLk6GJQsqaUBKTNV-1" vertex="1">
          <mxGeometry x="160" y="880" width="120" height="50" as="geometry" />
        </mxCell>
        <mxCell id="P_ejqXxA3MmKmbAG34VU-21" value="" style="edgeStyle=orthogonalEdgeStyle;rounded=0;orthogonalLoop=1;jettySize=auto;html=1;strokeWidth=1;fontColor=#FF8000;" parent="WIyWlLk6GJQsqaUBKTNV-1" source="P_ejqXxA3MmKmbAG34VU-16" target="P_ejqXxA3MmKmbAG34VU-20" edge="1">
          <mxGeometry relative="1" as="geometry" />
        </mxCell>
        <mxCell id="SvVdULVF1Hvvb6DCQOAH-1" value="" style="edgeStyle=orthogonalEdgeStyle;rounded=0;orthogonalLoop=1;jettySize=auto;html=1;dashed=1;dashPattern=1 4;" edge="1" parent="WIyWlLk6GJQsqaUBKTNV-1" source="P_ejqXxA3MmKmbAG34VU-16" target="SvVdULVF1Hvvb6DCQOAH-0">
          <mxGeometry relative="1" as="geometry" />
        </mxCell>
        <mxCell id="P_ejqXxA3MmKmbAG34VU-16" value="Scanne du QR Code par le livreur" style="rounded=1;whiteSpace=wrap;html=1;direction=north;fillColor=#ffe6cc;strokeColor=#d79b00;" parent="WIyWlLk6GJQsqaUBKTNV-1" vertex="1">
          <mxGeometry x="160" y="1000" width="120" height="50" as="geometry" />
        </mxCell>
        <mxCell id="SvVdULVF1Hvvb6DCQOAH-0" value="&lt;i&gt;Info livraison : SMS/Mail avec code et QR Code envoyé au client&lt;/i&gt;" style="rounded=1;whiteSpace=wrap;html=1;direction=north;fillColor=#ffe6cc;strokeColor=#d79b00;dashed=1;dashPattern=1 2;" vertex="1" parent="WIyWlLk6GJQsqaUBKTNV-1">
          <mxGeometry x="360" y="995" width="260" height="60" as="geometry" />
        </mxCell>
        <mxCell id="SvVdULVF1Hvvb6DCQOAH-3" value="" style="edgeStyle=orthogonalEdgeStyle;rounded=0;orthogonalLoop=1;jettySize=auto;html=1;dashed=1;dashPattern=1 4;" edge="1" parent="WIyWlLk6GJQsqaUBKTNV-1" source="P_ejqXxA3MmKmbAG34VU-20" target="SvVdULVF1Hvvb6DCQOAH-2">
          <mxGeometry relative="1" as="geometry" />
        </mxCell>
        <mxCell id="SvVdULVF1Hvvb6DCQOAH-6" value="" style="edgeStyle=orthogonalEdgeStyle;rounded=0;orthogonalLoop=1;jettySize=auto;html=1;dashed=1;dashPattern=1 4;fontColor=#E6D0DE;" edge="1" parent="WIyWlLk6GJQsqaUBKTNV-1" source="P_ejqXxA3MmKmbAG34VU-20" target="SvVdULVF1Hvvb6DCQOAH-5">
          <mxGeometry relative="1" as="geometry" />
        </mxCell>
        <mxCell id="P_ejqXxA3MmKmbAG34VU-20" value="Livraison à l&#39;adresse donnée par le client" style="rounded=1;whiteSpace=wrap;html=1;direction=north;fillColor=#ffe6cc;strokeColor=#d79b00;" parent="WIyWlLk6GJQsqaUBKTNV-1" vertex="1">
          <mxGeometry x="160" y="1130" width="120" height="50" as="geometry" />
        </mxCell>
        <mxCell id="SvVdULVF1Hvvb6DCQOAH-7" value="" style="edgeStyle=orthogonalEdgeStyle;rounded=0;orthogonalLoop=1;jettySize=auto;html=1;dashed=1;dashPattern=1 4;fontColor=#E6D0DE;" edge="1" parent="WIyWlLk6GJQsqaUBKTNV-1" source="SvVdULVF1Hvvb6DCQOAH-5" target="P_ejqXxA3MmKmbAG34VU-3">
          <mxGeometry relative="1" as="geometry" />
        </mxCell>
        <mxCell id="SvVdULVF1Hvvb6DCQOAH-5" value="Livraison suivante" style="rounded=1;whiteSpace=wrap;html=1;direction=north;fillColor=#d5e8d4;strokeColor=#82b366;" vertex="1" parent="WIyWlLk6GJQsqaUBKTNV-1">
          <mxGeometry x="160" y="1260" width="120" height="50" as="geometry" />
        </mxCell>
        <mxCell id="SvVdULVF1Hvvb6DCQOAH-2" value="&lt;i&gt;Entrée du code ou scan du QR Code par le livreur&lt;/i&gt;" style="rounded=1;whiteSpace=wrap;html=1;direction=north;fillColor=#ffe6cc;strokeColor=#d79b00;dashed=1;dashPattern=1 2;" vertex="1" parent="WIyWlLk6GJQsqaUBKTNV-1">
          <mxGeometry x="360" y="1130" width="260" height="50" as="geometry" />
        </mxCell>
        <mxCell id="G-hIVbg5v9CWW5Yy8Wli-9" value="A la livraison" style="rhombus;whiteSpace=wrap;html=1;" parent="WIyWlLk6GJQsqaUBKTNV-1" vertex="1">
          <mxGeometry x="40" y="425" width="100" height="90" as="geometry" />
        </mxCell>
        <mxCell id="G-hIVbg5v9CWW5Yy8Wli-10" value="En ligne" style="rhombus;whiteSpace=wrap;html=1;" parent="WIyWlLk6GJQsqaUBKTNV-1" vertex="1">
          <mxGeometry x="300" y="425" width="100" height="90" as="geometry" />
        </mxCell>
        <mxCell id="G-hIVbg5v9CWW5Yy8Wli-20" value="&lt;font color=&quot;#ff0000&quot;&gt;Limite d&#39;annulation et/ou de modification de la commande&lt;/font&gt;" style="text;html=1;strokeColor=none;fillColor=none;align=center;verticalAlign=middle;whiteSpace=wrap;rounded=0;fontStyle=2" parent="WIyWlLk6GJQsqaUBKTNV-1" vertex="1">
          <mxGeometry x="820" y="600" width="360" height="70" as="geometry" />
        </mxCell>
        <mxCell id="P_ejqXxA3MmKmbAG34VU-2" value="" style="edgeStyle=orthogonalEdgeStyle;rounded=0;orthogonalLoop=1;jettySize=auto;html=1;" parent="WIyWlLk6GJQsqaUBKTNV-1" source="P_ejqXxA3MmKmbAG34VU-1" target="Fh5ID8DqyuNmly4tTI_g-0" edge="1">
          <mxGeometry relative="1" as="geometry" />
        </mxCell>
        <mxCell id="P_ejqXxA3MmKmbAG34VU-1" value="" style="ellipse;whiteSpace=wrap;html=1;aspect=fixed;fillColor=#dae8fc;gradientColor=#7ea6e0;strokeColor=#6c8ebf;" parent="WIyWlLk6GJQsqaUBKTNV-1" vertex="1">
          <mxGeometry x="200" y="-120" width="40" height="40" as="geometry" />
        </mxCell>
        <mxCell id="P_ejqXxA3MmKmbAG34VU-3" value="" style="ellipse;whiteSpace=wrap;html=1;aspect=fixed;fillColor=#dae8fc;gradientColor=#7ea6e0;strokeColor=#6c8ebf;" parent="WIyWlLk6GJQsqaUBKTNV-1" vertex="1">
          <mxGeometry x="200" y="1360" width="40" height="40" as="geometry" />
        </mxCell>
        <mxCell id="P_ejqXxA3MmKmbAG34VU-4" value="" style="shape=flexArrow;endArrow=classic;html=1;fillColor=#cce5ff;strokeColor=#36393d;" parent="WIyWlLk6GJQsqaUBKTNV-1" edge="1">
          <mxGeometry width="50" height="50" relative="1" as="geometry">
            <mxPoint x="826" y="640" as="sourcePoint" />
            <mxPoint x="826" y="880" as="targetPoint" />
          </mxGeometry>
        </mxCell>
        <mxCell id="P_ejqXxA3MmKmbAG34VU-5" value="Commande en attente de préparation" style="text;html=1;align=center;verticalAlign=middle;resizable=0;points=[];labelBackgroundColor=#ffffff;rotation=0;fontStyle=1" parent="P_ejqXxA3MmKmbAG34VU-4" vertex="1" connectable="0">
          <mxGeometry x="-0.7303" y="4" relative="1" as="geometry">
            <mxPoint x="116" y="-87.00000000000001" as="offset" />
          </mxGeometry>
        </mxCell>
        <mxCell id="P_ejqXxA3MmKmbAG34VU-6" value="" style="endArrow=none;dashed=1;html=1;fillColor=#f8cecc;strokeColor=#b85450;strokeWidth=3;" parent="WIyWlLk6GJQsqaUBKTNV-1" edge="1">
          <mxGeometry width="50" height="50" relative="1" as="geometry">
            <mxPoint y="638.67" as="sourcePoint" />
            <mxPoint x="820" y="638.67" as="targetPoint" />
          </mxGeometry>
        </mxCell>
        <mxCell id="P_ejqXxA3MmKmbAG34VU-11" value="" style="shape=flexArrow;endArrow=classic;html=1;fillColor=#f5f5f5;strokeColor=#666666;" parent="WIyWlLk6GJQsqaUBKTNV-1" edge="1">
          <mxGeometry width="50" height="50" relative="1" as="geometry">
            <mxPoint x="827" y="545" as="sourcePoint" />
            <mxPoint x="827" y="640" as="targetPoint" />
          </mxGeometry>
        </mxCell>
        <mxCell id="P_ejqXxA3MmKmbAG34VU-12" value="Commande en préparation" style="text;html=1;align=center;verticalAlign=middle;resizable=0;points=[];labelBackgroundColor=#ffffff;rotation=0;fontColor=#3399FF;fontStyle=1" parent="P_ejqXxA3MmKmbAG34VU-11" vertex="1" connectable="0">
          <mxGeometry x="-0.7303" y="4" relative="1" as="geometry">
            <mxPoint x="89" y="192" as="offset" />
          </mxGeometry>
        </mxCell>
        <mxCell id="P_ejqXxA3MmKmbAG34VU-13" value="" style="shape=flexArrow;endArrow=classic;html=1;fillColor=#ffcccc;strokeColor=#36393d;" parent="WIyWlLk6GJQsqaUBKTNV-1" edge="1">
          <mxGeometry width="50" height="50" relative="1" as="geometry">
            <mxPoint x="827" y="880" as="sourcePoint" />
            <mxPoint x="827" y="1000" as="targetPoint" />
          </mxGeometry>
        </mxCell>
        <mxCell id="P_ejqXxA3MmKmbAG34VU-15" value="Commande en attente de livraison" style="text;html=1;align=center;verticalAlign=middle;resizable=0;points=[];labelBackgroundColor=#ffffff;rotation=0;fontColor=#FF99CC;fontStyle=1" parent="P_ejqXxA3MmKmbAG34VU-13" vertex="1" connectable="0">
          <mxGeometry x="0.0933" y="10" relative="1" as="geometry">
            <mxPoint x="103" y="-14.67" as="offset" />
          </mxGeometry>
        </mxCell>
        <mxCell id="P_ejqXxA3MmKmbAG34VU-18" value="" style="shape=flexArrow;endArrow=classic;html=1;fillColor=#ffe6cc;strokeColor=#d79b00;" parent="WIyWlLk6GJQsqaUBKTNV-1" edge="1">
          <mxGeometry width="50" height="50" relative="1" as="geometry">
            <mxPoint x="827" y="1000" as="sourcePoint" />
            <mxPoint x="827" y="1180" as="targetPoint" />
          </mxGeometry>
        </mxCell>
        <mxCell id="P_ejqXxA3MmKmbAG34VU-19" value="Commande en livraison" style="text;html=1;align=center;verticalAlign=middle;resizable=0;points=[];labelBackgroundColor=#ffffff;rotation=0;fontColor=#FF8000;fontStyle=1" parent="P_ejqXxA3MmKmbAG34VU-18" vertex="1" connectable="0">
          <mxGeometry x="0.0933" y="10" relative="1" as="geometry">
            <mxPoint x="73" y="-15.33" as="offset" />
          </mxGeometry>
        </mxCell>
        <mxCell id="SvVdULVF1Hvvb6DCQOAH-8" value="" style="shape=flexArrow;endArrow=classic;html=1;fillColor=#d5e8d4;strokeColor=#82b366;" edge="1" parent="WIyWlLk6GJQsqaUBKTNV-1">
          <mxGeometry width="50" height="50" relative="1" as="geometry">
            <mxPoint x="827" y="1180" as="sourcePoint" />
            <mxPoint x="827" y="1260" as="targetPoint" />
          </mxGeometry>
        </mxCell>
        <mxCell id="SvVdULVF1Hvvb6DCQOAH-9" value="Commande livrée" style="text;html=1;align=center;verticalAlign=middle;resizable=0;points=[];labelBackgroundColor=#ffffff;rotation=0;fontColor=#67AB9F;fontStyle=1" vertex="1" connectable="0" parent="SvVdULVF1Hvvb6DCQOAH-8">
          <mxGeometry x="0.0933" y="10" relative="1" as="geometry">
            <mxPoint x="73" y="-15.33" as="offset" />
          </mxGeometry>
        </mxCell>
        <mxCell id="SvVdULVF1Hvvb6DCQOAH-13" value="&lt;font color=&quot;#000000&quot; style=&quot;font-size: 28px&quot;&gt;&lt;b&gt;CYCLE DE VIE D&#39;UNE COMMANDE&lt;/b&gt;&lt;/font&gt;" style="text;html=1;strokeColor=none;fillColor=none;align=center;verticalAlign=middle;whiteSpace=wrap;rounded=0;fontColor=#FF99CC;" vertex="1" parent="WIyWlLk6GJQsqaUBKTNV-1">
          <mxGeometry x="210" y="-390" width="590" height="110" as="geometry" />
        </mxCell>
        <mxCell id="SvVdULVF1Hvvb6DCQOAH-16" value="&lt;font color=&quot;#000000&quot;&gt;NB : la demande de paiement interviendra au stade &quot;Commande en préparation&quot;&lt;/font&gt;" style="rounded=1;whiteSpace=wrap;html=1;fontColor=#FF99CC;dashed=1;dashPattern=1 2;" vertex="1" parent="WIyWlLk6GJQsqaUBKTNV-1">
          <mxGeometry x="470" y="440" width="170" height="60" as="geometry" />
        </mxCell>
        <mxCell id="SvVdULVF1Hvvb6DCQOAH-19" value="" style="edgeStyle=orthogonalEdgeStyle;rounded=0;orthogonalLoop=1;jettySize=auto;html=1;dashed=1;dashPattern=1 4;fontColor=#FF99CC;" edge="1" parent="WIyWlLk6GJQsqaUBKTNV-1" source="G-hIVbg5v9CWW5Yy8Wli-10" target="SvVdULVF1Hvvb6DCQOAH-16">
          <mxGeometry relative="1" as="geometry">
            <mxPoint x="400" y="470" as="sourcePoint" />
            <mxPoint x="520" y="470" as="targetPoint" />
          </mxGeometry>
        </mxCell>
      </root>
    </mxGraphModel>
  </diagram>
</mxfile>
